<?xml version="1.0" standalone="no"?>
<!DOCTYPE svg PUBLIC "-//W3C//DTD SVG 20010904//EN"
 "http://www.w3.org/TR/2001/REC-SVG-20010904/DTD/svg10.dtd">
<svg version="1.0" xmlns="http://www.w3.org/2000/svg"
 width="700.000000pt" height="700.000000pt" viewBox="0 0 700.000000 700.000000"
 preserveAspectRatio="xMidYMid meet">
<metadata>
Created by potrace 1.14, written by Peter Selinger 2001-2017
</metadata>
<g transform="translate(0.000000,700.000000) scale(0.100000,-0.100000)"
fill="#000000" stroke="none">
<path d="M142 6016 c67 -118 456 -890 590 -1171 37 -77 110 -229 162 -338 53
-110 96 -200 96 -202 0 -2 29 -63 64 -137 83 -173 336 -717 336 -722 0 -2 19
-44 41 -93 23 -48 54 -115 69 -148 15 -33 77 -172 138 -310 277 -632 293 -680
287 -905 -3 -139 -5 -156 -31 -250 -47 -172 -152 -349 -279 -469 -29 -28 -50
-52 -47 -55 4 -2 278 -3 609 -3 l602 0 -62 66 c-126 134 -221 312 -261 488
-32 142 -33 134 47 293 159 314 325 539 512 689 245 198 486 270 795 237 95
-10 378 -86 616 -165 236 -78 554 -182 569 -185 6 -1 60 -19 120 -38 170 -56
267 -71 450 -72 152 -1 163 0 230 27 39 15 95 45 125 67 168 120 323 169 517
165 89 -3 241 -14 263 -20 8 -2 35 -7 60 -10 25 -3 67 -10 93 -16 26 -6 50
-10 52 -8 5 6 -355 369 -451 455 -173 156 -317 267 -489 379 -114 74 -348 198
-486 259 -97 42 -319 121 -372 132 -155 33 -210 39 -357 39 -245 0 -460 -42
-685 -132 -286 -116 -601 -353 -833 -628 -42 -49 -108 -124 -148 -165 -170
-180 -372 -422 -518 -624 -45 -62 -47 -63 -42 -36 32 200 167 492 359 780 62
93 151 216 167 230 3 3 21 25 40 50 19 25 38 50 43 55 160 200 334 489 416
696 40 100 80 248 87 324 3 33 8 68 10 77 10 34 5 255 -6 319 -36 199 -178
483 -320 640 -257 284 -585 479 -865 514 -27 4 -61 8 -75 11 -32 5 -258 6
-285 0 -11 -2 -39 -7 -62 -11 -44 -7 -62 -21 -47 -35 5 -4 61 -10 124 -13 139
-6 245 -36 341 -98 178 -114 223 -210 215 -459 -4 -114 -39 -346 -67 -440 -6
-19 -17 -62 -25 -95 -8 -33 -59 -193 -114 -355 -117 -350 -129 -398 -128 -514
2 -184 53 -302 232 -541 33 -44 75 -97 94 -119 37 -41 62 -92 63 -128 1 -13
-29 -90 -66 -173 -37 -82 -114 -258 -172 -390 -58 -132 -107 -244 -110 -248
-3 -5 -36 65 -74 155 -38 89 -73 172 -78 183 -6 11 -65 148 -131 305 -67 157
-186 436 -265 620 -173 407 -379 890 -450 1060 -29 69 -121 286 -204 482 -83
197 -151 367 -151 378 0 33 38 137 68 185 40 64 142 167 261 262 24 20 18 20
-626 20 l-649 0 68 -121z m2452 -27 c253 -50 472 -259 542 -516 22 -83 27
-230 9 -290 -17 -57 -18 -66 -6 -58 13 8 -24 -124 -60 -215 -30 -73 -94 -200
-128 -250 -27 -39 -87 -159 -115 -230 -32 -77 -60 -186 -76 -290 -10 -70 -15
-370 -6 -415 2 -11 7 -45 10 -76 4 -31 9 -67 11 -80 18 -94 23 -318 8 -358 -8
-19 -10 -10 -10 40 -1 35 -8 80 -17 101 -15 34 -99 151 -139 193 -38 39 -148
215 -186 297 -22 46 -42 103 -46 128 -36 212 60 487 231 666 27 28 90 81 139
119 183 138 375 320 374 353 0 13 -4 11 -17 -8 -36 -54 -153 -162 -282 -261
-135 -103 -178 -140 -277 -235 -29 -28 -53 -48 -53 -45 0 4 13 45 29 91 29 83
87 275 96 315 2 11 15 70 30 130 14 61 28 126 31 145 2 19 7 46 9 60 25 146
25 375 1 450 -34 103 -98 184 -186 234 l-45 26 40 -5 c22 -3 62 -10 89 -16z
m476 -241 c94 -71 244 -236 331 -364 56 -83 137 -249 158 -324 27 -93 39 -208
36 -340 -3 -151 -19 -244 -64 -380 -30 -89 -95 -240 -104 -240 -2 0 -4 17 -4
38 1 35 -5 96 -19 192 -21 147 -93 340 -190 509 l-66 114 21 71 c11 39 25 98
30 131 9 62 7 228 -4 280 -22 108 -80 233 -141 303 -19 22 -34 44 -34 49 0 4
4 3 8 -2 4 -6 23 -22 42 -37z m181 -1028 c167 -337 178 -612 34 -886 -40 -76
-205 -297 -214 -288 -3 3 -4 25 -2 50 6 100 -27 174 -124 279 -74 81 -115 149
-129 217 -13 62 -12 70 19 208 19 87 94 254 170 380 48 80 79 141 112 219 l15
35 31 -50 c17 -27 56 -101 88 -164z m-321 -865 c38 -40 79 -92 89 -115 23 -52
22 -138 -4 -226 -19 -69 -81 -177 -123 -217 l-29 -28 -7 48 c-4 26 -9 55 -11
63 -5 26 -30 211 -40 295 -3 28 -8 124 -10 215 l-5 165 35 -64 c19 -35 66 -96
105 -136z m1986 82 c12 -3 39 -8 60 -11 127 -20 299 -72 437 -132 80 -35 124
-62 82 -51 -37 10 -169 20 -300 21 -249 4 -507 -44 -639 -118 -27 -15 -67 -26
-112 -30 -83 -8 -140 -15 -174 -21 -14 -3 -45 -7 -69 -10 -52 -6 -101 -14
-121 -20 -8 -2 -31 -7 -50 -10 -121 -20 -346 -99 -512 -181 -71 -34 -105 -47
-99 -36 12 22 164 168 215 207 22 17 51 39 65 51 35 28 161 104 244 147 240
126 578 207 837 201 63 -1 125 -5 136 -7z m479 -212 c39 -4 72 -9 75 -10 3 -2
32 -7 65 -10 76 -9 118 -25 224 -81 128 -69 455 -293 501 -344 3 -3 28 -23 55
-44 81 -64 411 -399 398 -403 -7 -3 -77 11 -155 31 -386 95 -716 217 -1118
413 -266 130 -383 185 -465 218 -85 34 -245 81 -309 90 l-47 7 22 24 c45 48
179 97 298 109 30 3 56 7 58 9 6 6 327 -1 398 -9z m-838 -170 c220 -25 397
-90 845 -309 300 -146 484 -222 771 -317 97 -32 184 -59 192 -59 8 0 15 -4 15
-8 0 -5 -15 -8 -32 -7 -58 4 -205 -32 -280 -69 -40 -19 -102 -60 -138 -90 -73
-62 -167 -113 -226 -121 -47 -7 -168 -7 -209 0 -117 19 -111 18 -230 49 -145
37 -247 78 -298 120 -97 79 -175 189 -288 403 -123 233 -146 272 -214 358 -18
22 -35 45 -38 51 -6 11 28 11 130 -1z m-167 -38 c57 -29 153 -169 259 -377 90
-177 88 -174 143 -256 26 -38 72 -93 102 -122 30 -29 53 -52 51 -52 -2 0 -78
27 -167 61 -329 123 -591 213 -778 265 -109 31 -142 36 -260 39 -190 5 -369
-28 -544 -102 -44 -18 -81 -31 -82 -30 -2 2 23 33 54 69 225 260 575 457 897
504 22 4 60 10 85 14 81 13 202 7 240 -13z"/>
</g>
</svg>
