<?xml version="1.0" encoding="utf-8"?>
<!-- Generator: Adobe Illustrator 25.3.1, SVG Export Plug-In . SVG Version: 6.00 Build 0)  -->
<svg version="1.1" id="Layer_1" xmlns="http://www.w3.org/2000/svg" xmlns:xlink="http://www.w3.org/1999/xlink" x="0px" y="0px"
	 viewBox="0 0 200 200" style="enable-background:new 0 0 200 200;" xml:space="preserve">
<style type="text/css">
	.st0{fill:#7E7F40;}
</style>
<g>
	<path class="st0" d="M100,20.1c26,0,29.1,0.1,39.4,0.6c9.5,0.4,14.7,2,18.1,3.4c4.5,1.8,7.8,3.9,11.2,7.3c3.4,3.4,5.5,6.7,7.3,11.2
		c1.3,3.4,2.9,8.6,3.4,18.1c0.5,10.3,0.6,13.4,0.6,39.4s-0.1,29.1-0.6,39.4c-0.4,9.5-2,14.7-3.4,18.1c-1.8,4.5-3.9,7.8-7.3,11.2
		c-3.4,3.4-6.7,5.5-11.2,7.3c-3.4,1.3-8.6,2.9-18.1,3.4c-10.3,0.5-13.4,0.6-39.4,0.6s-29.1-0.1-39.4-0.6c-9.5-0.4-14.7-2-18.1-3.4
		c-4.5-1.8-7.8-3.9-11.2-7.3c-3.4-3.4-5.5-6.7-7.3-11.2c-1.3-3.4-2.9-8.6-3.4-18.1c-0.5-10.3-0.6-13.4-0.6-39.4s0.1-29.1,0.6-39.4
		c0.4-9.5,2-14.7,3.4-18.1c1.8-4.5,3.9-7.8,7.3-11.2S38,25.8,42.5,24c3.4-1.3,8.6-2.9,18.1-3.4C70.9,20.2,74,20.1,100,20.1 M100,2.5
		c-26.5,0-29.8,0.1-40.2,0.6C49.4,3.6,42.4,5.2,36.2,7.6c-6.4,2.5-11.8,5.8-17.3,11.2S10.1,29.7,7.6,36.2
		c-2.4,6.2-4.1,13.3-4.5,23.7C2.6,70.2,2.5,73.5,2.5,100s0.1,29.8,0.6,40.2c0.5,10.4,2.1,17.5,4.5,23.7c2.5,6.4,5.8,11.8,11.2,17.3
		c5.4,5.4,10.9,8.8,17.3,11.2c6.2,2.4,13.3,4.1,23.7,4.5c10.4,0.5,13.7,0.6,40.2,0.6s29.8-0.1,40.2-0.6c10.4-0.5,17.5-2.1,23.7-4.5
		c6.4-2.5,11.8-5.8,17.3-11.2c5.4-5.4,8.8-10.9,11.2-17.3c2.4-6.2,4.1-13.3,4.5-23.7c0.5-10.4,0.6-13.7,0.6-40.2s-0.1-29.8-0.6-40.2
		c-0.5-10.4-2.1-17.5-4.5-23.7c-2.5-6.4-5.8-11.8-11.2-17.3s-10.9-8.8-17.3-11.2c-6.2-2.4-13.3-4.1-23.7-4.5
		C129.8,2.6,126.5,2.5,100,2.5z M100,49.9c-27.6,0-50.1,22.4-50.1,50.1s22.4,50.1,50.1,50.1s50.1-22.4,50.1-50.1
		S127.6,49.9,100,49.9z M100,132.5c-17.9,0-32.5-14.5-32.5-32.5S82.1,67.5,100,67.5s32.5,14.5,32.5,32.5S117.9,132.5,100,132.5z
		 M163.7,48c0,6.5-5.2,11.7-11.7,11.7c-6.5,0-11.7-5.2-11.7-11.7s5.2-11.7,11.7-11.7C158.5,36.3,163.7,41.5,163.7,48z"/>
</g>
</svg>
