<?xml version="1.0" encoding="utf-8"?>
<!-- Generator: Adobe Illustrator 25.3.1, SVG Export Plug-In . SVG Version: 6.00 Build 0)  -->
<svg version="1.1" id="Layer_1" xmlns="http://www.w3.org/2000/svg" xmlns:xlink="http://www.w3.org/1999/xlink" x="0px" y="0px"
	 viewBox="0 0 200 200" style="enable-background:new 0 0 200 200;" xml:space="preserve">
<style type="text/css">
	.st0{fill-rule:evenodd;clip-rule:evenodd;fill:#7E7F40;}
</style>
<g id="Group_57">
	<path id="Path_22" class="st0" d="M37,56.5c45.8,14.8,83.9,57.1,87.7,98.8C146.4,96.9,97.7,36,1.5,35.3c10.9,29.5,8,57.8,27.2,84.5
		c19.2,26.6,49.3,43.1,82.1,44.8C108,122.3,78.6,78,37,56.5z"/>
	<path id="Path_23" class="st0" d="M181.1,50.1c-23.3,11.8-40.4,37.7-38.9,60.6c-16.6-29.7,4.6-66.6,56.2-75
		c-3.4,16.9,0.5,31.9-7.6,47.8s-23,27.3-40.5,31.1C148.5,91.4,160.5,65.1,181.1,50.1z"/>
</g>
</svg>
