<svg version="1.1" id="Layer_1" xmlns="http://www.w3.org/2000/svg" x="0" y="0" viewBox="0 0 200 200" xml:space="preserve"><style>.st0{fill-rule:evenodd;clip-rule:evenodd}</style><g id="Group_57"><path id="Path_22" class="st0" d="M37 56.4c45.8 14.8 83.9 57.1 87.7 98.8 21.7-58.4-27-119.3-123.2-120 10.9 29.5 8 57.8 27.2 84.5 19.2 26.6 49.3 43.1 82.1 44.8C108 122.2 78.6 77.9 37 56.4z"/><path id="Path_23" class="st0" d="M181.1 50c-23.3 11.8-40.4 37.7-38.9 60.6-16.6-29.7 4.6-66.6 56.2-75-3.4 16.9.5 31.9-7.6 47.8-8.1 15.9-23 27.3-40.5 31.1-1.8-23.2 10.2-49.5 30.8-64.5z"/></g></svg>