<?xml version="1.0" encoding="utf-8"?>
<!-- Generator: Adobe Illustrator 25.3.1, SVG Export Plug-In . SVG Version: 6.00 Build 0)  -->
<svg version="1.1" id="Layer_1" xmlns="http://www.w3.org/2000/svg" xmlns:xlink="http://www.w3.org/1999/xlink" x="0px" y="0px"
	 viewBox="0 0 200 200" style="enable-background:new 0 0 200 200;" xml:space="preserve">
<style type="text/css">
	.st0{fill:#7E7F40;}
</style>
<g>
	<g>
		<g>
			<path class="st0" d="M172,125.6c15.9-11.6,25-28.2,25-46.2c0-33.5-31.8-60.7-70.8-60.7c-31.5,0-58.8,17.4-67.8,43.2
				c-0.4,1.2,0.4,2.6,1.1,3.7c0.8,1.1,2.6,1.6,3.9,1.6c37.9,0,68.8,25.4,68.8,56.7c0,3.5-0.4,7.1-1.3,10.7c-0.3,1.3,0,2.6,0.9,3.6
				c0.9,1,2.2,1.5,3.5,1.3c6.3-0.7,12.3-2.1,18-4.1l21.4,12.2c0.6,0.4,1.3,0.5,2,0.5c1,0,2-0.4,2.8-1.1c1.3-1.2,1.6-3.2,0.8-4.8
				L172,125.6z"/>
			<path class="st0" d="M63.5,75.4C30,75.4,2.8,97.1,2.8,123.9c0,14.4,8.2,28.2,22,37.4L19.2,175c-0.6,1.6-0.2,3.3,1,4.5
				c0.8,0.7,1.7,1.1,2.7,1.1c0.6,0,1.2-0.1,1.8-0.4l20.1-10c6.1,1.6,12.3,2.4,18.6,2.4c33.5,0,60.7-21.8,60.7-48.6
				S96.9,75.4,63.5,75.4z"/>
		</g>
	</g>
</g>
</svg>
