<svg version="1.1" id="Layer_1" xmlns="http://www.w3.org/2000/svg" x="0" y="0" viewBox="0 0 500 155.9" xml:space="preserve"><style>.st0{fill:#fff}</style><g id="Logo_KOYAA" transform="translate(-150.03 -367.12)"><path id="Path_1" class="st0" d="M252.7 471.5c-10.8-5.4-60-69.7-65.9-74.3 10.9-9.2 34-28.3 34-28.3-4.2.1-20.1-.1-23.1-.1-1.4 0 5 .5 4.8 4.9 0 4.9-2 9.5-5.7 12.7-1.6 1.5-5.3 4.7-9.8 8.7-2.4 2.2-5.1 4.5-7.9 6.9-2.6 2.2-5.1 4.5-7.7 6.7v-30.8c.6-2.1 1.8-4 3.5-5.3l5.2-3.9h-29.7l5.3 3.9c1.4 1.1 2.6 2.7 3.2 4.4l.4 44-.1 12.1v31c-.6 2.1-1.8 4-3.5 5.3l-5.2 3.9h29.7l-5.2-3.9c-1.4-1.1-2.5-2.7-3.2-4.4l-.4-44 .1-10.3 6.7-6c4.7 5.8 52 61.5 55.2 65 2.3 2.5 5.6 3.8 9 3.6h14.4l-4.1-1.8z"/><path id="Path_2" class="st0" d="M642.7 464.7c-.6-.9-3.3-7.9-8.3-21.1-2.9-7.6-6.5-17-10.1-26.2l-.6-1.5c-5-12.8-12.1-30.9-15.7-40.3-1.4-3.6-2.2-5.7-2.5-6.5l-.1-.2h-.2c-2.5-.1-14.2-.1-19.2 0h-1l.8.5c1.9 1.2 3.6 2.6 5 4.3l.3.4c.6.6 1 1.3 1.2 2.1-.1 1.7-.6 3.4-1.3 4.9-.5 1-3.3 6.8-7.6 15.6l-5.5 11.2-.1.2c-8.7 17.7-18.5 37.8-21.2 43.9-5.6 12.5-11.2 18.2-14.9 20.7l-1.6.7H561l-.9-.7c-2.1-1.7-5.4-5-5-8.5.5-2.3 1.3-4.4 2.4-6.5l6.4-13.5c19.4-40.9 28-58.9 29.8-62.3l.5-1 .5 1c4.7 9 34.7 83.8 34.8 84.2v.2c-.2 2.6-1.6 4.9-3.8 6.3l-1.1.8H650l-1.1-.8c-2.3-2.4-4.3-5.1-6.2-7.9z"/><path id="Path_3" class="st0" d="M309.3 368.9c-28.9-.2-52.5 23-52.7 51.8-.2 28.9 23 52.5 51.8 52.7 28.9.5 52.7-22.5 53.2-51.4s-22.5-52.7-51.4-53.2c-.2.1-.6.1-.9.1zm28.1 89.2c-7.1 9.1-18 14.4-29.6 14.2-23.5 0-38.1-19.6-38.1-51 0-15 3.8-27.8 10.9-37 6.9-9.2 17.8-14.5 29.3-14.2 11.3-.3 22 5.1 28.5 14.2 6.7 9.1 10.2 21.9 10.2 37 .1 14.8-3.8 27.5-11.2 36.8z"/><g id="Group_1" transform="translate(229.222 367.12)"><path id="Path_4" class="st0" d="M208.9 22.3c5.2-11.7 9.2-20.5 9.2-20.5h-17.2c6.9 4.5 11 7.8 9.5 11.3-.1.3-1.2 2.7-2.7 6.2.3.5.5 1.1.7 1.6.2.5.3.9.5 1.4z"/><path id="Path_5_1_" class="st0" d="M206.7 21.6c-3.9-9.1-11.6-16-21.1-18.8-2.4-.6-4.9-.9-7.4-.9-1.7 0-3.4.2-5.1.6-.3.1-.1.5.1.7.2.1.4.1.6.1h.9c4.2-.3 8.3 1.4 11.2 4.4 4.1 4.7-.5 19.8-1.9 23.8-.7 2.1-1.4 4.1-2.1 6.2-.8 2-1.3 4.1-1.5 6.2-.1 2 .2 4.1.9 6 .8 1.8 1.8 3.6 2.9 5.2.6.9 1.3 1.7 1.9 2.6.3.4.7.8 1 1.2.4.4.7.8 1 1.2.4.6.6 1.4.7 2.1-4.2 9.6-7.4 16.9-7.6 17.2-9.8-22.9-19.4-45.3-28.8-67.7.6-5.3 4.9-7.9 7.5-10.2h-27.7c3.2 4 28.2 56.1 37.6 78.6 4.3 9.1 1.7 19.9-6.1 26.1h26.2c-4.3-3.9-6.9-9.2-7.4-14.9 6.7-15.4 15.6-23.2 26.3-23.2 1.7 0 3.3.2 4.9.5 3.7.8 7.4 1.9 11 3.2l1.4.5c.4.1.9.3 1.6.5 4 1.3 12.6 4.1 13.5 4.3 2.6.7 5.3 1.1 8 1.1 2.8.2 5.5-.6 7.7-2.3 3.1-2.4 6.9-3.6 10.8-3.4 3.3.1 6.6.5 9.9 1.2h.1c.1-.4-2.4-2.4-4.3-4.6-1.2-1.3-2.9-3-4.8-4.8-3.9-3.6-8.2-6.9-12.7-9.6-.4-.2-.8-.4-1.2-.7-.9-.5-1.7-.9-2.5-1.3-3.9-2.2-8.1-3.8-12.4-5-1-.2-1.9-.4-2.9-.6-1.7-.3-3.5-.4-5.3-.4-6.1.1-12.1 1.6-17.5 4.4-5.9 3.2-11.1 7.5-15.3 12.8-.6.6-1.1 1.2-1.7 1.9-4.7 4.8-9 10-12.8 15.5 2-11.4 12.1-23.2 13-24.3 3.1-3.8 5.7-8 7.9-12.4 2.5-5.1 3.7-10.7 3.3-16.4-.1-1.1-.3-2.2-.6-3.3-.5-1.1-.8-2.2-1.2-3.3zm60.1 49.6c-4-.1-7.8 1.3-10.7 4-1.7 1.4-3.9 2.2-6.1 2-2.2-.1-4.4-.4-6.5-1-.9-.2-1.8-.5-2.6-.7h-.1c-.4-.2-3.2-1.1-3.6-1.4-2.1-1.6-3.8-3.5-5-5.8-.4-.8-.9-1.5-1.3-2.3-.6-1.1-1.2-2.2-1.7-3.3-1.2-2.4-2.7-4.7-4.4-6.8h.1c2.4 0 4.8.4 7.2 1 .9.3 1.9.6 2.8.9 3.3 1.3 6.5 2.7 9.6 4.3 7.3 3.7 14.9 6.8 22.7 9-.1.1-.2.1-.4.1zm-15.2-17.3c.8.4 1.6.8 2.5 1.3.4.2.8.4 1.2.7 7 4.3 13.3 9.6 18.6 15.8h-.5c-9.9-2.1-19.4-5.6-28.4-10.3-3.6-1.7-6.6-3.3-9.6-4.4-.9-.3-1.9-.6-2.8-.9-1.1-.3-2.2-.5-3.3-.7.6-1.2 3.3-2.1 4.9-2.5l.4-.1c1-.2 2-.3 3-.4s2-.1 3-.1c3.3 0 6.7.4 10 1 .3.3.6.4 1 .6zm-37-1.6c5.3-2.7 11.1-4.2 17.1-4.3 1.5 0 3.1.1 4.6.4 1 .2 2 .4 2.9.6 3.2.8 6.2 2 9.1 3.5-2.5-.4-5-.6-7.6-.6-1 0-2 0-3 .1s-2.2.2-3.4.4c-.3 0-.6.1-.9.1-2.4.4-4.7 1.2-6.8 2.5-2.8.3-3.6.3-6.2.7-6.2.8-12.3 2.8-17.7 5.9 3.5-3.9 7.5-7 11.9-9.3zm-17.5 16.9c5.8-7.3 14.4-11.9 23.8-12.5.4 0 .8-.1 1.3-.1 1 0 2 .3 2.7.9 1.6 1.8 3 3.9 4.1 6 .6 1.1 1.1 2.2 1.7 3.4.4.8.9 1.6 1.4 2.4 1.1 2 2.6 3.8 4.5 5.1-.3-.1-3.8-1.4-8.1-2.9-.9-.3-1.9-.7-2.9-1-3.8-1.4-7.7-2.6-11.6-3.7-1.4-.3-2.9-.4-4.4-.4-4.4.1-8.8 1.2-12.8 3.2-.1 0 0-.1.3-.4zm-10.4-42.7c.5-2.1 1-4.1 1.4-6.2.3-1.9.4-3.8.6-5.8.7-7.8-4.3-10-5.8-10.4.2 0 .5.1 1 .1 3.9.3 7.5 2 10.1 4.9 3 3.2 4.5 7.5 4 11.9-.2 1.4-.8 2.6-1.8 3.6-1.1 1.3-2.4 2.4-3.7 3.4-2.9 2-5.6 4.3-8 6.8-.2.2-.4.4-.5.7.8-3.1 1.9-6 2.7-9zm3 38.1c.3-1.3.2-2.6-.2-3.9 0-.1-.1-.2-.1-.3-.4-.8-.9-1.5-1.5-2.2-.7-.9-1.4-1.7-2.1-2.6-1.2-1.6-2.3-3.3-3.2-5.1-1-1.8-1.4-3.8-1.3-5.8.4-5.1 2.8-9.8 6.8-13.1 2.9-2 5.6-4.3 8.1-6.8.7-.7 1.2-1.6 1.6-2.5-.4 2-1 4-1.8 5.9-.6 1.4-1.3 2.7-2.1 4-1 1.6-1.9 3.2-2.6 5-1.2 3-1.9 6.1-2 9.3-.1 2.7 0 5.5.4 8.2.2 1.5.4 3.1.5 4.6.1.7.1 1.3.1 2 .1 1.1-.1 2.2-.6 3.3zm2.1-2.2s-.1-.5-.2-1.1c-.2-1.1-.5-2.6-.6-3.9 0-.2-.1-.4-.1-.6-.4-2.6-.6-5.3-.7-7.9 0-1.1 0-2.3.1-3.4.1.3.2.6.3.8.4 1 .9 1.8 1.6 2.6.5.6 1.1 1.2 1.7 1.7.6.6 1.1 1.3 1.4 2.1.1.2.1.5.2.8.1 3.4-1.3 6.6-3.7 8.9zm6.1-8c-.6.8-1.3 1.7-1.9 2.5.4-1.6.2-3.2-.4-4.7-.1-.3-.3-.7-.5-1-.3-.4-.6-.7-.9-1.1-1.1-1-2-2.2-2.8-3.4-.5-1-.7-2-.8-3.1.5-3.2 1.5-6.2 3-9 .8-1.5 1.8-2.9 2.6-4.4.5-1 1-2.1 1.4-3.1 1.1 1.8 2.2 3.6 3 5.5.2.5.4.9.6 1.4.4 1 .8 2 1.1 3.1.3 1.2.5 2.3.6 3.6.3 5-1.5 10-5 13.7zm7.5-13.2c-.5 1.3-1 2.6-1.7 3.8 0-2.8-.4-5.6-1.1-8.3 0-.1 0-.1-.1-.2-.3-1.1-.7-2.1-1.1-3.1-.5-1.3-1.1-2.6-1.8-3.8-.6-1.1-1.2-2.1-1.9-3.1.5-1.3.8-2.6 1-4 .4-2.3.3-4.7-.2-7-.5-2.2-1.6-4.2-3-5.9-.3-.4-.7-.8-1.1-1.2.4.3.8.6 1.1.8 2.5 2 4.8 4.3 6.6 7 1.5 2.1 2.8 4.4 3.7 6.8.2.6.4 1.3.6 1.9.1.5.2 1.1.3 1.6 1.1 4.9.6 10-1.3 14.7z"/></g><g id="Group_2" transform="translate(255.52 367.126)"><path id="Path_6" class="st0" d="M198 73.7l-.2-.1c-3.1 6.3-5.3 11-5.4 11.2-5.6 12.5-11.2 18.2-14.9 20.7l-1.3.7h20.5l-1-.7c-2.1-1.7-5.4-5-5-8.5.5-2.3 1.3-4.4 2.4-6.5 0 0 3.4-7 7.6-16l-1.4-.5c-.4 0-.9-.1-1.3-.3z"/><path id="Path_7" class="st0" d="M261.4 105.6l-1.1.8h25.2l-1.1-.8c-2.3-2.5-4.4-5.1-6.3-7.9-.6-.9-3.3-7.9-8.3-21.1-2.9-7.6-6.5-17-10.1-26.2l-.6-1.5c-5-12.8-12.1-30.9-15.7-40.3-1.4-3.6-2.2-5.7-2.5-6.5l-.1-.2h-.2c-2.5-.1-14.2-.1-19.2 0h-1l.8.5c1.9 1.2 3.6 2.6 5 4.3l.3.4c.6.6 1 1.3 1.2 2.1-.1 1.7-.6 3.4-1.3 4.9-.2.4-16 33.1-16.2 33.4 1 .2 2 .4 2.9.6.1-.3 15.2-31.8 15.9-33l.5-1 .5 1c4.7 9 34.7 83.8 34.8 84.2v.2c.2 2.3-1.2 4.6-3.4 6.1z"/></g><g id="Group_3" transform="translate(183.542 414.514)"><path id="Path_8" class="st0" d="M82.5 87.7c1.1 2.1 1.6 4.5 1.6 6.9 0 2.4-.5 4.7-1.6 6.8-1.1 2.1-2.8 3.8-4.8 4.9-2.3 1.3-4.9 1.9-7.5 1.8-2.6.1-5.3-.5-7.6-1.8-2-1.2-3.7-2.9-4.8-4.9-2.1-4.3-2.1-9.4 0-13.7 1.1-2.1 2.8-3.8 4.8-4.9 4.8-2.4 10.4-2.4 15.2 0 2 1.1 3.7 2.8 4.7 4.9zm-21.7 12.8c.8 1.7 2 3.2 3.6 4.2 1.7 1.1 3.7 1.6 5.8 1.6 2 .1 4.1-.5 5.8-1.6 1.6-1 2.8-2.5 3.6-4.2.8-1.9 1.2-3.9 1.2-6s-.4-4.1-1.2-6c-.8-1.7-2-3.2-3.6-4.2-1.7-1.1-3.7-1.6-5.8-1.6-2-.1-4 .5-5.8 1.6-1.6 1-2.8 2.5-3.6 4.2a15.6 15.6 0 0 0 0 12z"/><path id="Path_9" class="st0" d="M126 106.1h.5v1.4H124c-1.7 0-3.3-.7-4.4-2.1l-5.1-6.6h-6.6v8.7h-3.1v-26h12c1.6 0 3.1.4 4.4 1.1 1.3.7 2.4 1.8 3.2 3.1.8 1.3 1.2 2.8 1.2 4.4 0 1.5-.4 3-1.2 4.3-.8 1.3-1.9 2.4-3.2 3.2-.9.5-1.8.8-2.8 1l4.8 6.1c.6.9 1.6 1.4 2.8 1.4zm-9.7-9.6v.5-.5c.9-.1 1.7-.4 2.4-.8 1-.5 1.9-1.3 2.5-2.3.5-.9.8-2 .8-3.1v-.4c0-1.1-.3-2.1-.8-3.1-.6-1-1.5-1.8-2.5-2.3-.8-.4-1.6-.6-2.4-.8-.2 0-.4-.1-.6-.1v.1c-.1 0-.1-.1-.2-.1H107.8v12.9h6.8c.5 0 1.1-.1 1.6-.1l.1.1z"/><path id="Path_10" class="st0" d="M168.4 92.8h3.1v13l-.4.1c-.5.1-1 .2-1.5.4-.9.4-1.8.7-2.7.9-1.8.5-3.6.7-5.4.8-2.8.1-5.5-.5-8-1.8-2.1-1.1-3.9-2.8-5-4.9-2.3-4.3-2.3-9.4 0-13.7 1.2-2.1 2.9-3.8 5-4.9 2.5-1.3 5.2-1.9 8-1.8 1.8 0 3.7.3 5.4.8 1.5.3 2.9.8 4.2 1.5l.3.1V87h-1.1l-.2-.3c-.4-.5-.9-1-1.5-1.3-1-.7-2.1-1.3-3.2-1.7-1.5-.5-3-.8-4.6-.8-2-.1-4 .5-5.8 1.6-1.6 1-2.9 2.4-3.6 4.1-.8 1.8-1.3 3.8-1.2 5.9 0 2 .4 4 1.2 5.8.8 1.7 2.1 3.1 3.6 4.1 1.7 1.1 3.7 1.6 5.8 1.6 1.5 0 3-.2 4.5-.7.8-.2 1.6-.6 2.3-1 .4-.4.7-1 .7-1.6l.1-9.9z"/><path id="Path_11" class="st0" d="M216.6 104.5l1.4 3h-3.5l-3.2-6.8h-12.6c-.8 0-1.5.4-1.8 1.1l-2.7 5.7h-2.4l13-26.9h1l10.8 23.9-.5.2.5-.2zm-11.7-18.3l-6.3 12.6h11.9l-5.6-12.6z"/><path id="Path_12" class="st0" d="M264.2 81.5h2.2v26h-1.8l-.1-.4c-.1-.3-.1-.5-.2-.8-.3-.7-.6-1.3-1-1.9-.6-1-1.2-1.9-1.9-2.8-1-1.2-2.1-2.2-3.2-3.2-1.5-1.3-3.1-2.4-4.8-3.3-4-2-7.7-4.7-10.7-8v20.3h-2.1v-26h2l.2.3c.2.5.4 1 .7 1.5.4.6.9 1.3 1.4 1.9.7.8 1.4 1.5 2.1 2.2 1 .9 2.1 1.7 3.2 2.5 1.4 1 2.9 1.9 4.4 2.7 3.8 2 7.2 4.7 9.9 8l-.3-19z"/><path id="Path_13" class="st0" d="M292.8 107.5h-3.1v-26h3.1v26z"/><path id="Path_14" class="st0" d="M335 101.9h1.2v3.7l-.3.1c-1.3.7-2.8 1.2-4.2 1.5-1.7.5-3.5.7-5.2.8-2.7.1-5.3-.5-7.7-1.8-2.1-1.1-3.8-2.8-4.9-4.9-2.2-4.3-2.2-9.4 0-13.7 1.1-2.1 2.8-3.8 4.9-4.9 2.4-1.3 5.1-1.9 7.8-1.8 1.8 0 3.5.3 5.2.8 1.4.3 2.8.8 4.1 1.5l.3.1V87H335l-.2-.3c-.4-.5-.9-1-1.4-1.4-1-.7-2-1.3-3.1-1.7-1.4-.5-2.9-.8-4.4-.8-2-.1-4 .5-5.7 1.6-1.5 1-2.8 2.5-3.5 4.1-.8 1.8-1.3 3.8-1.2 5.9 0 2 .4 4 1.2 5.8.8 1.7 2 3.1 3.5 4.1 1.7 1.1 3.7 1.6 5.7 1.6 1.5 0 2.9-.2 4.3-.7 1.1-.3 2.1-.8 3.1-1.5.6-.4 1.2-1 1.6-1.7l.1-.1z"/><path id="Path_15" class="st0" d="M377.2 100.6v.3c0 1.4-.5 2.7-1.4 3.8-1 1.2-2.3 2.2-3.8 2.8-1.7.7-3.6 1.1-5.4 1-2.1.1-4.1-.2-6.1-.8-1.5-.5-2.8-1.2-4.1-2l-.3-.1v-3.7h1.1l.2.2c.5.7 1.2 1.4 1.8 2.1.5.5 1 .8 1.6 1.1l.2.1c1.1.5 2.3.8 3.5.9 1 .1 2 .1 3 0h.8c.3 0 .6-.1.8-.1.8-.1 1.5-.4 2.2-.7.8-.4 1.6-1 2.2-1.7.6-.7.9-1.5.9-2.4v-.5c-.1-.6-.3-1.1-.6-1.6-.2-.3-.4-.6-.7-.8-.9-.8-2-1.4-3.2-1.8-.5-.2-1.4-.5-2.9-.9l-1.4-.4c-1.7-.5-3.4-1.1-5-1.9-.2-.1-.4-.3-.7-.4-.7-.5-1.4-1-1.9-1.6-.8-.9-1.3-2-1.4-3.1 0-.1-.1-.3-.1-.5v-.4c0-1.3.4-2.6 1.3-3.6.9-1.1 2.1-2 3.4-2.4 1.6-.6 3.3-.9 5-.9 2 0 4 .4 5.9 1 .7.2 1.4.5 2.1.8l.3.1v3.7h-1.1l-.2-.3c-.7-.9-1.6-1.7-2.5-2.2l-.1-.1c-1.4-.6-2.9-.9-4.4-.9h-1.3c-1.5.1-2.9.6-4.1 1.6l-.2.2c-.1.1-.2.3-.4.4-.5.6-.8 1.4-.8 2.1v.5c0 .3.1.5.2.8.2.6.5 1.1 1 1.4l.2.1c.2.2.5.4.7.6.1 0 .2.1.3.1.5.3 1 .6 1.5.8.9.3 2.2.8 3.8 1.3s3 1 4.2 1.4c.3.1.7.3 1 .4 1.3.6 2.5 1.4 3.5 2.5.8.9 1.3 2 1.5 3.2-.2.2-.2.4-.1.5z"/></g></g></svg>